<svg height="512" viewBox="0 0 512 512" width="512" xmlns="http://www.w3.org/2000/svg"><g isolation="isolate"><g id="Layer_1" data-name="Layer 1"><ellipse cx="272.64" cy="477.86" opacity=".1" rx="124.7" ry="28.14"/><ellipse cx="239.14" cy="419.16" fill="#3c4a60" rx="13.06" ry="34.45" transform="matrix(.094 -.996 .996 .094 -200.74 617.62)"/><ellipse cx="304.6" cy="419.16" fill="#445370" rx="34.45" ry="13.06" transform="matrix(.996 -.094 .094 .996 -38.25 30.66)"/><path d="m244.37 449.48c-.1-.19-.16-.3-.17-.33a.63.63 0 0 1 .17.33z" fill="#d8c3bc"/><path d="m234.75 474.72c-15.07 1.12-49.52 5-55.27 0-4.79-4.16 1.89-12.72 22.66-17.15a118.46 118.46 0 0 1 14.29-2.1c23.35-2.12 27.4-4.52 27.88-5.66a36.57 36.57 0 0 0 3.33 10 .59.59 0 0 1 0 .14c.87 6.59-.98 13.88-12.89 14.77z" fill="#cec2be"/><path d="m300.92 450.13c.1-.18.15-.3.17-.32a.59.59 0 0 0 -.17.32z" fill="#d8c3bc"/><path d="m310.54 475.37c15.07 1.12 49.52 5 55.27 0 4.78-4.15-1.89-12.72-22.66-17.15a122.47 122.47 0 0 0 -14.3-2.1c-23.35-2.12-27.39-4.51-27.88-5.66a36.34 36.34 0 0 1 -3.32 10 .77.77 0 0 0 0 .15c-.87 6.58.98 13.87 12.89 14.76z" fill="#cec2be"/><path d="m244.2 449.15c0 .22.07.44.11.66a36.57 36.57 0 0 0 3.33 10l.08.14h-.06l-44.54-.75c-.33-.56-.67-1.11-1-1.65-26.67-45.69 20.31-57.43 20.31-57.43l38.4 16.72c-16.53 9.86-18.11 23.16-16.63 32.31z" fill="#3c4a60"/><path d="m323 400.14s48.11 12 19.32 59.08l-44.59.75s14.89-26.44-13.13-43.11z" fill="#445370"/><path d="m236.5 460.1c5.94 5.26 16.94 5.78 16.94 5.78a19.85 19.85 0 0 1 -6-6.4l-12-.88a2.45 2.45 0 0 0 -2.15-1c.29-.19.6-.38.95-.57h-22.11a15.63 15.63 0 0 0 1.92 2.2l-11.91-1.64a9.94 9.94 0 0 1 -8.2-1.14s4.22 10.76 20.79 3.41a24.52 24.52 0 0 0 16.89 6s-2.34-3.14-.47-6.19c0 0 4.9 3.48 3.58 7.58 0 0 3.38-3 2-6.68.02.02-.07-.18-.23-.47z" fill="#3c4a60"/><path d="m309 460.1c-5.95 5.26-16.94 5.78-16.94 5.78a19.85 19.85 0 0 0 6-6.4l12-.88a2.47 2.47 0 0 1 2.16-1c-.29-.19-.6-.38-.95-.57h22.11a14.83 14.83 0 0 1 -1.92 2.2l11.92-1.64a9.92 9.92 0 0 0 8.19-1.14s-4.21 10.76-20.78 3.41c-2.93 2.62-6 6-14.51 6a13.35 13.35 0 0 0 -1.92-6.11s-4.89 3.48-3.58 7.58c0 0-3.37-3-2-6.68-.04-.06.05-.26.22-.55z" fill="#445370"/><path d="m446.86 397.69c-6.17 12.24-23.86 8.72-34.72 4.33-.12-.06-1.11-.71-1.22-.75-9.53-3.55-23.82-19.31-19-29.29 36-74.33 17.84-104.59-57.82-137.37 6.67-17.15 10.18-35.45 16.48-52.87 114.87 41.5 151.72 105.97 96.28 215.95z" fill="#445370"/><path d="m391.66 219.51c-15.74-9.93-31.46-11.49-47.92-19 .45.71.44-.06.48-.18 1.74-5 4.07-12.23 5.55-16.56 1-3 .24-.78.57-1.75s-.07.05.16-.32c115.44 41.15 150.62 105.91 97.13 215.74-4.29 8.8-14.82 8-23.23 8.41 36.6-77.85 50.52-133.8-32.74-186.34z" fill="#4f627f"/><rect fill="#e5d8d3" height="40.42" rx="9.17" transform="matrix(.866 .5 -.5 .866 248.08 -157.09)" width="70.06" x="382.14" y="364.17"/><path d="m94.18 385c4.36 13 22.37 12 33.74 9.23.14 0 1.21-.54 1.32-.57 9.94-2.14 26.33-15.71 23-26.27-25-78.7-2.72-106.06 76.83-127.72-4.15-17.92-5-36.54-8.76-54.68-119.64 24.64-165.31 83.19-126.13 200.01z" fill="#3c4a60"/><path d="m174.24 216.47c17-7.59 32.78-6.89 50.14-11.93-.56.64-.43-.13-.46-.25-1-5.21-2.28-12.69-3.12-17.18-.6-3.14-.13-.81-.32-1.81s.06.06-.11-.35c-120.14 24.26-164.2 83.34-126.92 199.67 3 9.33 13.53 10 21.8 11.64-25.14-82.33-30.92-139.67 58.99-179.79z" fill="#445370"/><rect fill="#e5d8d3" height="40.42" rx="9.17" transform="matrix(-.961 .277 -.277 -.961 344.08 707.98)" width="70.06" x="86.9" y="358.13"/><path d="m403.57 293.86c0 61.09-75.55 129.76-129.7 129.73-63.72 0-128.75-68.64-128.75-129.73s85-91.5 128.75-91.5 129.7 30.41 129.7 91.5z" fill="#3c4a60"/><path d="m403 300.05c-3.94 60.95-81.2 126.38-129.31 122.95-50.3-3.61-78.72-75.15-74.78-136.11s73-87 107.56-84.74 100.47 36.94 96.53 97.9z" fill="#445370"/><path d="m377.6 319.05c0 48.95-60.53 103.95-103.91 103.95-51.05 0-103.15-55-103.15-103.93s68.07-73.3 103.15-73.3 103.91 24.34 103.91 73.28z" fill="#f2e6e2"/><path d="m356.24 318.1c0 48.94-53.4 106.2-91.56 103.93-44.78-2.67-94.14-54-94.14-103s63.24-74.25 94.14-74.25 91.56 24.38 91.56 73.32z" fill="#e5d8d3"/><ellipse cx="271.32" cy="382.28" fill="#7f3c1b" opacity=".29" rx="3.09" ry="3.94"/><g opacity=".29"><path d="m299.66 334.6a18.8 18.8 0 0 0 21.33.64c3.48-2.24.25-7.81-3.24-5.56a12.59 12.59 0 0 1 -14.84-.64c-3.32-2.48-6.53 3.1-3.25 5.56z" fill="#7f3c1b"/></g><g opacity=".29"><path d="m216.91 334.6a18.82 18.82 0 0 0 21.34.64c3.47-2.24.24-7.81-3.25-5.56a12.59 12.59 0 0 1 -14.84-.64c-3.32-2.48-6.53 3.1-3.25 5.56z" fill="#7f3c1b"/></g><path d="m367 236.08c0 43.78-50.55 66.71-96.62 66.32-44.81-.38-91.88-25.91-91.88-69.69s47.06-88.87 91.88-88.87 96.62 48.46 96.62 92.24z" fill="#160904" opacity=".39"/><path d="m388.05 209.09c0 51.87-60.63 79-115.89 78.57-53.76-.45-110.23-30.69-110.23-82.57s56.46-105.28 110.23-105.28 115.89 57.41 115.89 109.28z" fill="#445370"/><path d="m313.35 43.07c-3.62-5.83-6.87-16.58-4.41-23.27l.16-.42c-12.57 3.26-12.22 15.92-12.22 15.92-8.52-10.13 0-29.3 0-29.3-34.72 4.26-92.65 46.87-104.88 93.16a38.44 38.44 0 0 0 -1.2 9.79v5.56a56.55 56.55 0 0 0 56.55 56.56h49.57a56.56 56.56 0 0 0 56.56-56.56v-10c.02-21.3-37.75-57.6-40.13-61.44z" fill="#445370"/><path d="m202.82 126.52a31.23 31.23 0 0 1 -2.66-26.67c5.17-14.33 14.12-31.07 26.27-44.48 26.95-29.76 70.45-49.37 70.45-49.37-34.85 4.27-93.1 47.19-105 93.69a35 35 0 0 0 -1.06 8.71v6.11a56.48 56.48 0 0 0 23 45.54 56.3 56.3 0 0 1 -11-33.53z" fill="#333e51"/><path d="m309.1 19.38s-19.68 19.9 1 45.21a30.36 30.36 0 0 1 -13.51-26.85c0-.68.3-2.8.34-3.48.14-3.1 1.57-12.19 12.17-14.88z" fill="#333e51"/><path d="m367 224c0 42-49.33 64-94.28 63.66-43.72-.36-89.72-24.87-89.72-66.89s45.93-85.3 89.67-85.3 94.33 46.53 94.33 88.53z" fill="#f2e6e2"/><rect fill="#f2e6e2" height="126.06" rx="25.01" width="132.34" x="205.99" y="80.72"/><path d="m344.94 224c0 42-44.07 64-84.23 63.66-39.07-.36-80.1-24.87-80.1-66.89s41-85.3 80.1-85.3 84.23 46.53 84.23 88.53z" fill="#e5d8d3"/><rect fill="#e5d8d3" height="126.06" rx="23.46" width="118.23" x="203.54" y="80.72"/><path d="m284 161.82a14.31 14.31 0 0 0 -9.87 3.69 14.31 14.31 0 0 0 -9.87-3.69c-7.13 0-12.92 4.65-12.92 10.4s5.79 10.4 12.92 10.4a14.31 14.31 0 0 0 9.87-3.69 14.31 14.31 0 0 0 9.87 3.69c7.13 0 12.92-4.65 12.92-10.4s-5.83-10.4-12.92-10.4z" fill="#f2e6e2"/><path d="m289.53 179.53a10.57 10.57 0 0 1 -2.77 1.13c-3.53.9-7-.17-8.62-2.9-2-3.46-.13-8.27 4.16-10.75l.42-.23c4.2-2.19 9-1.34 11 2s.1 8.27-4.19 10.75z" fill="#13171c"/><path d="m287.17 180.43c-.14.09-.28.16-.41.23-3.53.9-7-.17-8.62-2.9-2-3.46-.13-8.27 4.16-10.75l.42-.23c3.52-.89 7 .18 8.61 2.91 1.99 3.46.13 8.31-4.16 10.74z" fill="#1e242d"/><path d="m258.75 179.53a10.63 10.63 0 0 0 2.78 1.13c3.52.9 7-.17 8.61-2.9 2-3.46.13-8.27-4.16-10.75l-.41-.23c-4.21-2.19-9.05-1.34-11 2s-.11 8.27 4.18 10.75z" fill="#13171c"/><path d="m261.11 180.43a4.36 4.36 0 0 0 .42.23c3.52.9 7-.17 8.61-2.9 2-3.46.13-8.27-4.16-10.75l-.41-.23c-3.53-.89-7 .18-8.61 2.91-1.96 3.46-.14 8.31 4.15 10.74z" fill="#1e242d"/><path d="m329.84 236.87a63.91 63.91 0 0 1 -4.73 17.76 39.49 39.49 0 0 1 -5 8.43c-.46.62-1 1.2-1.48 1.78a30.27 30.27 0 0 1 -10.3 7.48 38 38 0 0 1 -13.41 3 56.17 56.17 0 0 1 -31.85-8.4 89.53 89.53 0 0 1 -19.17-15.92c-.43-.47-.85-.91-1.27-1.38a145 145 0 0 1 -14.27-18.92 210 210 0 0 1 -13.45-24.54 36.68 36.68 0 0 1 -2.74-8.12c-1.74-8.05 0-14.39 4.58-13 1.41.41 2.77.82 4.15 1.18.53.15 1.07.31 1.61.44 5.3 1.4 10.41 2.43 15.36 3.23a147.86 147.86 0 0 0 25.23 1.92 132.18 132.18 0 0 0 25.61-2.68c1.45-.28 2.85-.58 4.22-.91.21-.07.42-.11.63-.16a125 125 0 0 0 14.52-4.49c1.45-.56 2.81-1.12 4.09-1.66.89-.38 5.3-2.35 6.14-2.76a3.17 3.17 0 0 1 2.61 0c1.66.72 3.18 2.73 4.54 5.58a61.35 61.35 0 0 1 4.43 15.23c1.82 10.54 1.54 25.29-.05 36.91z" fill="#4f2a20"/><path d="m302.61 263.84a55.32 55.32 0 0 1 -.22 10.44 40.39 40.39 0 0 1 -7.47 1.05 53.61 53.61 0 0 1 -19.66-2.75 58.07 58.07 0 0 1 -.77-6.22c-.12-1.63-.17-3.23-.14-4.8a39.32 39.32 0 0 1 .22-4.1c1-11.77 5.7-20.63 12-21.19 6-.54 11.69 6.73 14.45 17.45a54 54 0 0 1 1.39 7.56c.06.83.14 1.72.2 2.56z" fill="#c33"/><path d="m304.93 245.11c11.64 5.59 18.69-14 11.58-20.72-4.8-4.52-14-5.7-24.64 2.09a41.53 41.53 0 0 0 -16.73 26.37c-1.33 7.37 11.38-16.58 29.79-7.74z" fill="#e0452e"/><path d="m320.25 206.1c-3.08.94-6.66 1.92-10.62 2.88l-7.44-18.77s-3.12 12.29-5.19 21.5c-24.4 4.35-56.7 5.5-80.75-10.65-3.37-2.27-5.41-7.23-4.46-11.92.64-3.13 2.32-4.86 5-4.09 1.41.41 2.77.82 4.15 1.18.53.15 1.07.31 1.61.44 5.3 1.4 10.41 2.43 15.36 3.23a147.86 147.86 0 0 0 25.23 1.92 132.18 132.18 0 0 0 25.61-2.68c1.45-.28 2.85-.58 4.22-.91.21-.07.42-.11.63-.16a125 125 0 0 0 14.52-4.49c.51.56 1 1.12 1.49 1.71a60.34 60.34 0 0 1 10.64 20.81z" fill="#fff"/><path d="m320.11 263.06c-.46.62-1 1.2-1.48 1.78a30.27 30.27 0 0 1 -10.3 7.48 34.76 34.76 0 0 1 -5.94 2 40.39 40.39 0 0 1 -7.47 1.05 53.61 53.61 0 0 1 -19.66-2.75 62.12 62.12 0 0 1 -12.19-5.65 52.73 52.73 0 0 1 11.5-9.47 29.53 29.53 0 0 1 11.05-4l1.17 18.9 4.15-18.06.22-.1c.86-.33 4.28-1.44 9.82-.45 4.56.81 10.56 3.06 17.77 8.32.45.24.9.58 1.36.95z" fill="#fff"/><g opacity=".15" mix-blend-mode="multiply"><path d="m277.71 128.49a40.1 40.1 0 1 1 40.11 40.09 40.11 40.11 0 0 1 -40.11-40.09z" fill="#7f3c1b"/></g><path d="m289.54 145.64a36.75 36.75 0 1 1 49.93 14.44 36.76 36.76 0 0 1 -49.93-14.44z" fill="#fff"/><path d="m333.75 149.71a36.72 36.72 0 0 0 16.84-44.48 36.73 36.73 0 1 1 -61 40.41 37.73 37.73 0 0 1 -2.4-5.43 36.73 36.73 0 0 0 46.56 9.5z" fill="#f2f2f2"/><path d="m295.93 124.44a4 4 0 1 1 1.56 5.4 4 4 0 0 1 -1.56-5.4z" fill="#1e242d"/><path d="m247 137.21s-14.72-20.86-41-17.92c0 0 18.16 3.93 27.73 12.27 0 0-19.39-2.7-27.73 5.65 0 0 22.32-5.16 41 0z" fill="#1e242d"/><path d="m196.76 114.17c-2.09-3.76-.11-9.25 2.35-14.92 6.59-15.17 22-23.1 37.23-17.91 7.1 2.43 12.64 6.11 13.55 11 2.2 11.78-8.29 4.09-22 6.94a60 60 0 0 0 -7.25 2.29c-13.43 6.43-17.89 23.43-23.88 12.6z" fill="#333e51"/><path d="m348.63 106.92c1.9-3.86-.63-9.32-3.69-15-8.19-15-25.14-22.47-40.8-16.7-7.31 2.69-12.87 6.6-13.44 11.53-1.38 11.93 9.09 3.82 23.81 6.21a65.8 65.8 0 0 1 7.84 2c14.73 6.12 20.8 23.04 26.28 11.96z" fill="#333e51"/><ellipse cx="58.13" cy="205.08" fill="#ffedd2" rx="18.36" ry="27.32"/><ellipse cx="95.78" cy="181.45" fill="#ffedd2" rx="31.15" ry="31.82"/><ellipse cx="135.12" cy="190.98" fill="#ffedd2" rx="25.19" ry="35.04"/><ellipse cx="159.52" cy="205.08" fill="#ffedd2" rx="30.37" ry="31.82"/><rect fill="#ceecfd" height="236.49" rx="6.89" width="150.35" x="39.76" y="197.13"/><path d="m39.76 197.13h150.13v35.27h-150.13z" fill="#ceecfd"/><rect fill="#fab131" height="217.64" rx="6.72" width="134.8" x="47.54" y="197.13"/><path d="m47.54 197.13h134.8v35.27h-134.8z" fill="#fab131"/><g fill="#fdc84c"><path d="m154.69 209.24h11.23v205.53h-11.23z"/><path d="m131.14 209.64h9.94v112.26h-9.94z"/><ellipse cx="136.11" cy="345.91" rx="5.99" ry="7.64"/><ellipse cx="120.94" cy="364.35" rx="5.99" ry="7.64"/><ellipse cx="102.69" cy="311.94" rx="7.82" ry="9.97"/><ellipse cx="85.89" cy="280.78" rx="2.91" ry="3.71"/></g><rect fill="#ffedd2" height="156.32" rx="6.04" width="33.37" x="93.24" y="182.63"/><rect fill="#ffedd2" height="86.42" rx="2.8" width="15.48" x="64.62" y="183.91"/></g></g></svg>